<mxfile host="Electron" modified="2023-12-14T04:03:05.298Z" agent="Mozilla/5.0 (Windows NT 10.0; Win64; x64) AppleWebKit/537.36 (KHTML, like Gecko) draw.io/21.2.1 Chrome/112.0.5615.87 Electron/24.1.2 Safari/537.36" etag="hbMHoWGJd7hn7f7B6q29" version="21.2.1" type="device">
  <diagram name="第 1 页" id="BnFoPzBKYMNWkBHY7dZJ">
    <mxGraphModel dx="1098" dy="820" grid="1" gridSize="10" guides="1" tooltips="1" connect="1" arrows="1" fold="1" page="1" pageScale="1" pageWidth="827" pageHeight="1169" math="0" shadow="0">
      <root>
        <mxCell id="0" />
        <mxCell id="1" parent="0" />
        <mxCell id="vkp331IsbNiODMzRlVrX-24" value="" style="fillColor=#DEE8FF;strokeColor=none" vertex="1" parent="1">
          <mxGeometry x="170" y="90" width="660" height="420" as="geometry" />
        </mxCell>
        <mxCell id="vkp331IsbNiODMzRlVrX-4" value="" style="edgeStyle=orthogonalEdgeStyle;rounded=0;orthogonalLoop=1;jettySize=auto;html=1;entryX=0;entryY=0.5;entryDx=0;entryDy=0;exitX=0.5;exitY=0;exitDx=0;exitDy=0;fillColor=#d5e8d4;strokeColor=#000000;" edge="1" parent="1" source="vkp331IsbNiODMzRlVrX-2" target="vkp331IsbNiODMzRlVrX-3">
          <mxGeometry relative="1" as="geometry">
            <mxPoint x="290" y="270" as="sourcePoint" />
            <Array as="points">
              <mxPoint x="250" y="310" />
              <mxPoint x="250" y="220" />
            </Array>
          </mxGeometry>
        </mxCell>
        <mxCell id="vkp331IsbNiODMzRlVrX-8" value="" style="edgeStyle=orthogonalEdgeStyle;rounded=0;orthogonalLoop=1;jettySize=auto;html=1;fillColor=#d5e8d4;strokeColor=#000000;" edge="1" parent="1" source="vkp331IsbNiODMzRlVrX-2" target="vkp331IsbNiODMzRlVrX-7">
          <mxGeometry relative="1" as="geometry">
            <Array as="points">
              <mxPoint x="330" y="340" />
              <mxPoint x="330" y="340" />
            </Array>
          </mxGeometry>
        </mxCell>
        <mxCell id="vkp331IsbNiODMzRlVrX-10" value="" style="edgeStyle=orthogonalEdgeStyle;rounded=0;orthogonalLoop=1;jettySize=auto;html=1;" edge="1" parent="1" source="vkp331IsbNiODMzRlVrX-2" target="vkp331IsbNiODMzRlVrX-9">
          <mxGeometry relative="1" as="geometry">
            <Array as="points">
              <mxPoint x="250" y="470" />
            </Array>
          </mxGeometry>
        </mxCell>
        <mxCell id="vkp331IsbNiODMzRlVrX-2" value="数据迁移" style="rounded=1;whiteSpace=wrap;html=1;fillColor=#60a917;strokeColor=#2D7600;fontSize=24;fontColor=#ffffff;" vertex="1" parent="1">
          <mxGeometry x="180" y="310" width="120" height="60" as="geometry" />
        </mxCell>
        <mxCell id="vkp331IsbNiODMzRlVrX-12" value="" style="edgeStyle=orthogonalEdgeStyle;rounded=0;orthogonalLoop=1;jettySize=auto;html=1;" edge="1" parent="1" source="vkp331IsbNiODMzRlVrX-3" target="vkp331IsbNiODMzRlVrX-11">
          <mxGeometry relative="1" as="geometry">
            <Array as="points">
              <mxPoint x="480" y="130" />
            </Array>
          </mxGeometry>
        </mxCell>
        <mxCell id="vkp331IsbNiODMzRlVrX-14" value="" style="edgeStyle=orthogonalEdgeStyle;rounded=0;orthogonalLoop=1;jettySize=auto;html=1;" edge="1" parent="1" source="vkp331IsbNiODMzRlVrX-3" target="vkp331IsbNiODMzRlVrX-13">
          <mxGeometry relative="1" as="geometry" />
        </mxCell>
        <mxCell id="vkp331IsbNiODMzRlVrX-3" value="迁移计划" style="rounded=1;whiteSpace=wrap;html=1;fillColor=#fad7ac;strokeColor=#b46504;fontSize=20;" vertex="1" parent="1">
          <mxGeometry x="370" y="190" width="120" height="60" as="geometry" />
        </mxCell>
        <mxCell id="vkp331IsbNiODMzRlVrX-7" value="实施迁移" style="rounded=1;whiteSpace=wrap;html=1;fillColor=#fad7ac;strokeColor=#b46504;fontSize=20;" vertex="1" parent="1">
          <mxGeometry x="370" y="310" width="120" height="60" as="geometry" />
        </mxCell>
        <mxCell id="vkp331IsbNiODMzRlVrX-9" value="完成迁移" style="rounded=1;whiteSpace=wrap;html=1;fillColor=#fad7ac;strokeColor=#b46504;fontSize=20;" vertex="1" parent="1">
          <mxGeometry x="370" y="440" width="120" height="60" as="geometry" />
        </mxCell>
        <mxCell id="vkp331IsbNiODMzRlVrX-11" value="考虑的因素" style="rounded=1;whiteSpace=wrap;html=1;fillColor=#e1d5e7;fontSize=18;strokeColor=#9673a6;" vertex="1" parent="1">
          <mxGeometry x="520" y="100" width="120" height="60" as="geometry" />
        </mxCell>
        <mxCell id="vkp331IsbNiODMzRlVrX-13" value="&lt;b&gt;预迁移&lt;/b&gt;" style="rounded=1;whiteSpace=wrap;html=1;fillColor=#e1d5e7;fontSize=18;strokeColor=#9673a6;" vertex="1" parent="1">
          <mxGeometry x="520" y="190" width="120" height="60" as="geometry" />
        </mxCell>
        <mxCell id="vkp331IsbNiODMzRlVrX-15" value="&lt;div style=&quot;font-size: 16px;&quot;&gt;&lt;ul style=&quot;font-size: 16px;&quot;&gt;&lt;li style=&quot;font-size: 16px;&quot;&gt;&lt;p style=&quot;font-size: 16px;&quot;&gt;停机时间&lt;/p&gt;&lt;/li&gt;&lt;li style=&quot;font-size: 16px;&quot;&gt;&lt;p style=&quot;font-size: 16px;&quot;&gt;切换策略&lt;/p&gt;&lt;/li&gt;&lt;/ul&gt;&lt;/div&gt;" style="text;whiteSpace=wrap;html=1;fontSize=16;" vertex="1" parent="1">
          <mxGeometry x="630" y="80" width="120" height="90" as="geometry" />
        </mxCell>
        <mxCell id="vkp331IsbNiODMzRlVrX-16" value="&lt;div style=&quot;font-size: 16px;&quot;&gt;&lt;ul style=&quot;font-size: 16px;&quot;&gt;&lt;li style=&quot;font-size: 16px;&quot;&gt;&lt;p style=&quot;font-size: 16px;&quot;&gt;兼容性&lt;/p&gt;&lt;/li&gt;&lt;li style=&quot;font-size: 16px;&quot;&gt;&lt;p style=&quot;font-size: 16px;&quot;&gt;验证错误与解决方案&lt;/p&gt;&lt;/li&gt;&lt;/ul&gt;&lt;/div&gt;" style="text;whiteSpace=wrap;html=1;fontSize=16;labelBorderColor=none;rounded=1;glass=1;" vertex="1" parent="1">
          <mxGeometry x="630" y="170" width="190" height="90" as="geometry" />
        </mxCell>
        <mxCell id="vkp331IsbNiODMzRlVrX-18" value="&lt;div style=&quot;font-size: 16px;&quot;&gt;&lt;ul style=&quot;font-size: 16px;&quot;&gt;&lt;li style=&quot;font-size: 16px;&quot;&gt;&lt;p style=&quot;font-size: 16px;&quot;&gt;数据的一致性和完整性&lt;/p&gt;&lt;/li&gt;&lt;li style=&quot;font-size: 16px;&quot;&gt;&lt;p style=&quot;font-size: 16px;&quot;&gt;系统的性能&lt;/p&gt;&lt;/li&gt;&lt;/ul&gt;&lt;/div&gt;" style="text;whiteSpace=wrap;html=1;fontSize=16;" vertex="1" parent="1">
          <mxGeometry x="480" y="420" width="210" height="90" as="geometry" />
        </mxCell>
        <mxCell id="vkp331IsbNiODMzRlVrX-19" value="" style="edgeStyle=orthogonalEdgeStyle;rounded=0;orthogonalLoop=1;jettySize=auto;html=1;" edge="1" parent="1">
          <mxGeometry relative="1" as="geometry">
            <mxPoint x="480" y="310" as="sourcePoint" />
            <Array as="points">
              <mxPoint x="480" y="309" />
              <mxPoint x="480" y="294" />
            </Array>
            <mxPoint x="525" y="294" as="targetPoint" />
          </mxGeometry>
        </mxCell>
        <mxCell id="vkp331IsbNiODMzRlVrX-20" value="" style="edgeStyle=orthogonalEdgeStyle;rounded=0;orthogonalLoop=1;jettySize=auto;html=1;" edge="1" parent="1" target="vkp331IsbNiODMzRlVrX-22">
          <mxGeometry relative="1" as="geometry">
            <mxPoint x="480" y="370" as="sourcePoint" />
            <Array as="points">
              <mxPoint x="480" y="380" />
            </Array>
          </mxGeometry>
        </mxCell>
        <mxCell id="vkp331IsbNiODMzRlVrX-21" value="迁移 schema" style="rounded=1;whiteSpace=wrap;html=1;fillColor=#e1d5e7;fontSize=18;strokeColor=#9673a6;" vertex="1" parent="1">
          <mxGeometry x="525" y="270" width="120" height="60" as="geometry" />
        </mxCell>
        <mxCell id="vkp331IsbNiODMzRlVrX-22" value="迁移 data" style="rounded=1;whiteSpace=wrap;html=1;fillColor=#e1d5e7;fontSize=18;strokeColor=#9673a6;" vertex="1" parent="1">
          <mxGeometry x="525" y="350" width="120" height="60" as="geometry" />
        </mxCell>
      </root>
    </mxGraphModel>
  </diagram>
</mxfile>
